<svg width="34" height="30" viewBox="0 0 34 30" fill="none" xmlns="http://www.w3.org/2000/svg">
<path fill-rule="evenodd" clip-rule="evenodd" d="M14.8672 24.9058L8.95057 21.1768C8.0376 20.6014 7.58111 20.3137 7.33222 19.8627C7.08333 19.4116 7.08333 18.872 7.08333 17.7928V12.2071C7.08333 11.7993 7.08333 11.4686 7.09676 11.1905L16 16.8018V25.5871C15.6918 25.4255 15.3315 25.1984 14.8672 24.9058ZM18 25.5871C18.3082 25.4255 18.6685 25.1984 19.1328 24.9058L25.0494 21.1768C25.9624 20.6014 26.4189 20.3137 26.6678 19.8627C26.9167 19.4116 26.9167 18.872 26.9167 17.7928V12.2071C26.9167 11.7993 26.9167 11.4686 26.9032 11.1905L18 16.8018V25.5871ZM25.9626 9.41925L17 15.068L8.03739 9.41925C8.27593 9.24835 8.57453 9.06016 8.95057 8.82316L14.8672 5.09417C15.904 4.44077 16.4223 4.11407 17 4.11407C17.5777 4.11407 18.096 4.44077 19.1328 5.09417L25.0494 8.82316C25.4255 9.06016 25.7241 9.24835 25.9626 9.41925Z" fill="#585A65"/>
</svg>
