<svg width="21" height="21" viewBox="0 0 21 21" fill="none" xmlns="http://www.w3.org/2000/svg">
<path fill-rule="evenodd" clip-rule="evenodd" d="M0.083313 10.5C0.083313 4.74705 4.74701 0.0833435 10.5 0.0833435C16.2529 0.0833435 20.9166 4.74705 20.9166 10.5C20.9166 13.6557 19.5134 16.4836 17.2969 18.3938C16.8237 17.119 15.9996 15.9982 14.9135 15.1649C13.6473 14.1933 12.096 13.6667 10.5 13.6667C8.90401 13.6667 7.35263 14.1933 6.08646 15.1649C5.00041 15.9982 4.17625 17.119 3.70307 18.3938C1.48655 16.4836 0.083313 13.6557 0.083313 10.5ZM15.5711 19.5579C15.5744 19.5704 15.578 19.5828 15.5818 19.5951C14.0786 20.4368 12.3453 20.9167 10.5 20.9167C8.65463 20.9167 6.92136 20.4368 5.41813 19.5951C5.42193 19.5828 5.42551 19.5704 5.42887 19.5579C5.72799 18.4416 6.3871 17.4551 7.30398 16.7516C8.22087 16.048 9.34428 15.6667 10.5 15.6667C11.6557 15.6667 12.7791 16.048 13.696 16.7516C14.6129 17.4551 15.272 18.4416 15.5711 19.5579ZM8.37498 7.37501C8.37498 6.20141 9.32637 5.25001 10.5 5.25001C11.6736 5.25001 12.625 6.20141 12.625 7.37501C12.625 8.54861 11.6736 9.50001 10.5 9.50001C9.32637 9.50001 8.37498 8.54861 8.37498 7.37501ZM10.5 3.25001C8.2218 3.25001 6.37498 5.09684 6.37498 7.37501C6.37498 9.65318 8.2218 11.5 10.5 11.5C12.7782 11.5 14.625 9.65318 14.625 7.37501C14.625 5.09684 12.7782 3.25001 10.5 3.25001Z" fill="#585A65"/>
</svg>
